<svg version="1.0" xmlns="http://www.w3.org/2000/svg" xmlns:xlink="http://www.w3.org/1999/xlink" width="100%" height="100%" preserveAspectRatio="xMidYMid meet" color-interpolation-filters="sRGB" style="margin: auto;"> 
    <g fill="#333" class="icon-text-wrapper icon-svg-group iconsvg" transform="translate(35,50)">
        <g fill="#333" class="iconsvg-imagesvg icon_container" transform="matrix(1,0,0,1,0,0)" opacity="1">
            <rect fill="#333" fill-opacity="0" stroke-width="2" x="0" y="0" width="60" height="60" class="image-rect"></rect> 
            <svg viewBox="0 0 60 60" x="0" y="0" width="60" height="60" class="image-svg-svg bn" style="overflow: visible;">
                <g hollow-target=""><g>
                <svg viewBox="0 0 100 100" xmlns="http://www.w3.org/2000/svg" style="overflow: visible;" width="60" height="60" x="0" y="0" filtersec="colorsf4716459883" filter="url(#uszj3Esl-0RGb-8vuAKBz)">
                    <g transform="scale(1, 1) skewX(0)" mask="url(#1K2fDKmFKFfSc9fPBJ9Bs)">
                        <path d="M50 0c27.614 0 50 22.386 50 50s-22.386 50-50 50S0 77.614 0 50 22.386 0 50 0zm0 10c-22.091 0-40 17.909-40 40s17.909 40 40 40 40-17.909 40-40-17.909-40-40-40z" stroke-width="2" stroke-linejoin="round"></path>
                    </g>
                    <mask data-mask="icon-ele" id="1K2fDKmFKFfSc9fPBJ9Bs">
                        <g stroke="#000" fill="#fff">
                            <path d="M50 0c27.614 0 50 22.386 50 50s-22.386 50-50 50S0 77.614 0 50 22.386 0 50 0zm0 10c-22.091 0-40 17.909-40 40s17.909 40 40 40 40-17.909 40-40-17.909-40-40-40z" stroke-width="2" stroke-linejoin="round"></path>
                        </g>
                    </mask>
                    <defs>
                        <filter id="uszj3Esl-0RGb-8vuAKBz">
                            <feColorMatrix type="matrix" values="0 0 0 0 0.19921875  0 0 0 0 0.19921875  0 0 0 0 0.19921875  0 0 0 1 0"></feColorMatrix>
                        </filter>
                    </defs>
                </svg>
            </g>
        <g filter="url(#colors9879102378)">
            <svg xmlns="http://www.w3.org/2000/svg" xmlns:xlink="http://www.w3.org/1999/xlink" viewBox="0 0.004001617431640625 78.41000366210938 54.279998779296875" width="32.8" height="32.8" x="13.600000000000001" y="13.600000000000001" class="image-svg-letter">
                <path transform="translate(-3.6000000000000005 53.784000000000006)" d="M3.60-50.98L39.60-50.98L39.60-38.30L19.58-38.30L19.58-31.25L33.98-31.25L33.98-19.22L19.58-19.22L19.58 0L3.60 0L3.60-50.98ZM44.64-36.14Q44.86-44.71 49.64-49.25Q54.43-53.78 63.22-53.78L63.22-53.78Q68.90-53.78 72.94-51.84Q76.97-49.90 79.02-46.58Q81.07-43.27 81.07-39.10L81.07-39.10Q81.07-34.06 78.70-31.21Q76.32-28.37 73.37-27.36L73.37-27.36L73.37-27.07Q82.01-23.83 82.01-15.05L82.01-15.05Q82.01-10.44 79.85-6.91Q77.69-3.38 73.69-1.44Q69.70 0.50 64.22 0.50L64.22 0.50Q54.86 0.50 49.54-3.96Q44.21-8.42 44.06-17.93L44.06-17.93L59.62-17.93Q59.47-15.34 60.37-14.00Q61.27-12.67 63.50-12.67L63.50-12.67Q64.80-12.67 65.66-13.64Q66.53-14.62 66.53-16.20L66.53-16.20Q66.53-18.22 65.20-19.26Q63.86-20.30 60.70-20.30L60.70-20.30L58.03-20.30L58.03-33.19L60.62-33.19Q65.52-32.90 65.52-37.08L65.52-37.08Q65.52-38.88 64.76-39.74Q64.01-40.61 62.86-40.61L62.86-40.61Q60.19-40.61 60.19-36.14L60.19-36.14L44.64-36.14Z"></path>
            </svg>
        </g>
    </g>
</svg> 
<defs>
    <filter id="colors9879102378">
        <feColorMatrix type="matrix" values="0 0 0 0 0.19921875  0 0 0 0 0.19921875  0 0 0 0 0.19921875  0 0 0 1 0" class="icon-fecolormatrix"></feColorMatrix>
    </filter>
    <filter id="colorsf4716459883">
        <feColorMatrix type="matrix" values="0 0 0 0 0.99609375  0 0 0 0 0.99609375  0 0 0 0 0.99609375  0 0 0 1 0" class="icon-fecolormatrix"></feColorMatrix>
    </filter>
    <filter id="colorsb2586236924">
        <feColorMatrix type="matrix" values="0 0 0 0 0  0 0 0 0 0  0 0 0 0 0  0 0 0 1 0" class="icon-fecolormatrix"></feColorMatrix>
    </filter>
</defs>
</g>
<g transform="translate(67,8.700000762939453)">
    <g data-gra="path-name" fill-rule="" class="tp-name iconsvg-namesvg" opacity="1" transform="matrix(1,0,0,1,0,0)">
        <g transform="scale(1)">
            <g>
                <path d="M13.68-42L1.74-42C4.14-35.82 4.02-5.28 1.74 0.6L13.62 0.6C12.54-1.62 12.06-2.82 12.06-4.62L12.06-13.2 13.68-13.2C22.38-13.2 26.64-17.46 26.64-25.02L26.64-30.18C26.64-37.74 22.38-42 13.68-42ZM17.88-26.04C17.88-22.56 16.98-21.48 12.06-21.48L12.06-33.72C16.86-33.72 17.88-32.76 17.88-29.16ZM52.74 0.6C49.8-6.12 44.94-33.18 46.08-38.4L31.74-38.4C32.76-33.12 28.26-6.12 25.2 0.6L37.02 0.6C35.94-0.6 36.12-2.4 36.36-4.68L41.34-4.68C41.58-2.52 41.76-0.78 40.74 0.6ZM40.26-12.84L37.62-12.84 39-25.08ZM82.14 0.6C79.68-3.9 77.64-9.54 73.26-19.92 78.36-31.44 79.68-34.32 81.9-38.4L68.82-38.4C70.56-36.84 70.02-33.72 67.86-28.26 65.64-33.78 64.92-37.14 66.84-38.4L53.64-38.4C55.86-34.38 57.18-31.26 62.16-20.16 57.48-9.12 55.44-3.72 53.1 0.6L66 0.6C64.08-1.44 64.8-4.2 67.5-12.12 70.32-4.38 71.22-1.38 69.24 0.6ZM112.5 0.6C110.22-5.28 110.04-35.88 112.62-42L101.1-42C102.96-38.22 102.6-33.18 102.6-22.86L95.22-42 84.54-42C86.94-35.82 86.82-5.28 84.54 0.6L96 0.6C93.9-3.66 94.5-5.7 94.5-21.9L102.72 0.6ZM126.06-30.12C133.2-30.12 133.8-30.36 136.44-29.1L137.58-38.4 115.74-38.4C117.9-32.94 118.14-5.4 115.74 0.6L137.58 0.6 136.62-8.7C134.28-7.5 133.56-7.68 126.06-7.68L126.06-14.76C129.36-14.76 131.4-14.64 134.16-13.62L134.16-24.12C131.16-22.98 129.36-23.04 126.06-23.04ZM156.72-30C162.12-30 161.52-30.18 165.12-28.32L163.98-38.4 140.7-38.4 139.5-28.2C142.98-30.12 142.74-30 147.96-30 147.96-12.3 148.2-4.14 146.4 0.6L158.28 0.6C156.48-4.32 156.72-12.3 156.72-30Z" transform="translate(-1.7400000095367432, 42)"></path>
            </g>
        </g>
    </g>
</g>
</g>
</svg>